<?xml version="1.0" standalone="no"?>
<!DOCTYPE svg PUBLIC "-//W3C//DTD SVG 20010904//EN"
 "http://www.w3.org/TR/2001/REC-SVG-20010904/DTD/svg10.dtd">
<svg version="1.0" xmlns="http://www.w3.org/2000/svg"
 width="3600.000000pt" height="1800.000000pt" viewBox="0 0 3600.000000 1800.000000"
 preserveAspectRatio="xMidYMid meet">

<g transform="translate(0.000000,1800.000000) scale(0.100000,-0.100000)"
fill="#000000" stroke="none">
<path d="M0 9000 l0 -9000 18000 0 18000 0 0 9000 0 9000 -18000 0 -18000 0 0
-9000z m6110 3565 c868 -96 1663 -471 2289 -1080 647 -629 1043 -1426 1158
-2330 22 -175 25 -701 5 -865 -19 -153 -57 -369 -88 -498 l-27 -112 -31 0
c-17 0 -89 7 -161 15 -71 8 -137 15 -146 15 -13 0 -11 19 18 132 70 281 103
551 103 853 0 571 -125 1091 -385 1604 -488 964 -1411 1664 -2468 1870 -251
49 -414 65 -687 65 -281 0 -442 -16 -705 -69 -1069 -216 -1979 -917 -2470
-1905 -180 -361 -286 -716 -347 -1160 -18 -129 -18 -681 0 -810 58 -419 173
-814 326 -1117 l34 -68 -156 -57 c-86 -32 -161 -58 -167 -58 -12 0 -27 29 -88
165 -140 320 -243 695 -294 1075 -23 170 -26 724 -5 890 103 819 411 1521 933
2125 121 140 351 362 499 480 642 516 1397 806 2235 859 120 8 483 -4 625 -19z
m-1450 -993 l135 -39 37 -139 c20 -76 255 -987 523 -2024 267 -1037 489 -1888
493 -1891 9 -8 415 20 423 29 3 4 86 216 184 472 98 256 183 475 190 488 10
22 14 16 38 -66 15 -49 27 -97 26 -108 0 -10 -67 -190 -148 -399 -81 -209
-147 -382 -145 -384 2 -2 71 0 153 4 l151 7 21 72 c11 39 28 96 38 126 l18 55
11 -38 c9 -31 7 -50 -14 -115 -13 -42 -24 -83 -24 -89 0 -14 90 -16 210 -4
l66 6 -455 1749 c-296 1138 -458 1742 -463 1730 -4 -11 -98 -518 -208 -1129
-111 -610 -205 -1119 -209 -1129 -6 -17 -9 -13 -18 20 -8 34 14 168 163 984
96 520 172 950 171 957 -1 7 -78 -250 -172 -570 -294 -1010 -271 -938 -283
-896 -9 33 9 100 184 699 107 365 192 665 190 667 -1 2 -108 -257 -237 -576
-129 -319 -237 -577 -240 -573 -4 4 -18 48 -33 98 l-26 91 326 798 c178 439
328 804 332 810 5 10 35 5 121 -19 l115 -31 477 -1838 c262 -1011 479 -1840
481 -1841 1 -2 203 -8 448 -15 245 -7 502 -15 571 -18 l127 -6 -27 114 c-148
618 -745 3078 -748 3076 -3 -3 -412 -2239 -414 -2261 0 -6 -7 10 -14 37 -12
45 -6 83 151 944 90 493 162 898 161 900 -2 1 -95 -311 -207 -695 -111 -383
-206 -704 -211 -712 -5 -10 -9 -3 -14 23 -6 32 25 149 199 744 114 388 205
707 203 709 -1 2 -112 -287 -247 -642 -134 -354 -247 -644 -250 -644 -3 0 -18
42 -33 94 l-27 93 316 834 c173 459 319 838 324 843 7 7 144 -37 162 -53 4 -3
189 -764 413 -1691 223 -927 410 -1694 414 -1706 8 -19 20 -22 123 -28 139 -9
588 -50 798 -74 l155 -17 -570 -1 c-996 -2 -1807 -48 -2630 -150 -986 -122
-2019 -394 -2835 -746 -102 -44 -250 -107 -330 -139 -196 -80 -514 -239 -690
-344 -151 -91 -398 -261 -534 -368 l-79 -62 -60 65 c-153 166 -341 419 -427
575 -18 33 -42 75 -52 92 l-20 33 179 88 c293 144 651 290 998 407 l170 57
167 452 c92 248 482 1305 868 2350 385 1044 703 1903 706 1907 8 14 20 12 164
-29z m8411 -506 c253 -28 491 -88 581 -145 94 -60 148 -170 169 -344 12 -107
2 -242 -32 -424 l-21 -113 -287 0 c-157 0 -356 3 -442 7 l-157 6 -6 64 c-13
124 -52 179 -149 208 -78 24 -310 37 -457 25 -256 -21 -338 -45 -457 -136
-107 -82 -166 -185 -227 -399 -20 -71 -48 -166 -61 -210 -13 -44 -33 -118 -45
-165 -12 -47 -31 -114 -41 -150 -11 -36 -38 -149 -60 -253 -74 -353 -47 -479
113 -533 218 -72 659 -52 848 38 105 51 202 193 254 373 14 49 26 93 26 97 0
4 -140 8 -311 8 -256 0 -310 2 -306 13 3 8 40 145 83 305 l78 292 749 0 c708
0 748 -1 743 -17 -3 -10 -47 -187 -99 -393 -52 -206 -111 -420 -132 -475 -91
-244 -240 -530 -344 -660 -117 -146 -323 -257 -571 -306 -205 -41 -1053 -50
-1337 -15 -496 62 -730 206 -789 484 -38 181 -5 478 95 842 173 634 192 702
225 815 48 160 182 456 256 566 90 131 235 273 376 365 211 139 526 225 909
248 144 9 697 -3 826 -18z m3443 -78 c3 -51 31 -768 61 -1593 30 -825 56
-1533 59 -1572 l4 -73 -452 0 -453 0 -7 163 c-3 89 -9 219 -13 290 l-6 127
-594 0 -593 0 -19 -31 c-10 -16 -81 -147 -157 -289 l-139 -260 -463 0 -462 0
30 53 c16 28 440 778 942 1664 l913 1613 672 0 671 0 6 -92z m3644 80 c-3 -7
-49 -181 -104 -385 l-98 -373 -450 -2 -449 -3 -341 -1277 -341 -1278 -442 0
c-244 0 -443 2 -443 5 0 6 666 2504 676 2538 5 16 -19 17 -415 17 -232 0 -421
2 -421 4 0 2 45 173 100 380 55 206 100 378 100 381 0 3 592 5 1316 5 1049 0
1315 -3 1312 -12z m2712 8 c0 -2 -43 -164 -95 -361 -52 -196 -95 -359 -95
-361 0 -2 -341 -4 -758 -4 l-759 0 -80 -300 c-44 -165 -77 -302 -75 -305 3 -3
320 -5 704 -5 527 0 698 -3 698 -12 0 -9 -123 -466 -156 -580 -5 -17 -48 -18
-713 -18 l-708 0 -81 -309 c-45 -170 -82 -316 -82 -325 0 -14 72 -16 768 -18
l768 -3 -96 -360 -95 -360 -1218 -3 c-1157 -2 -1218 -1 -1213 15 3 10 202 754
441 1653 240 899 438 1641 440 1648 3 9 253 12 1205 12 660 0 1200 -2 1200 -4z
m1100 -23 c-1 -16 -47 -590 -104 -1278 -57 -687 -99 -1254 -95 -1259 4 -5 14
-6 21 -3 7 3 307 582 667 1286 l655 1281 452 0 c249 0 455 -3 457 -7 2 -5 -16
-541 -39 -1193 -49 -1364 -49 -1370 -30 -1370 8 0 70 122 154 303 78 166 346
742 596 1280 250 538 456 981 459 983 2 2 202 3 444 2 l441 -3 -813 -1660
-814 -1660 -640 -3 -641 -2 5 67 c6 74 105 1958 105 1998 0 17 -6 25 -18 25
-13 0 -144 -255 -540 -1045 l-522 -1045 -631 0 -632 0 6 83 c4 45 43 789 88
1652 44 864 82 1576 84 1583 4 9 101 12 445 12 l440 0 0 -27z m6384 -65 c4
-51 31 -768 61 -1593 30 -825 56 -1533 59 -1572 l4 -73 -452 0 -453 0 -7 163
c-3 89 -9 219 -13 290 l-6 127 -594 0 -593 0 -19 -31 c-10 -16 -81 -147 -157
-289 l-139 -260 -463 0 -462 0 30 53 c16 28 440 778 942 1664 l913 1613 672 0
671 0 6 -92z m1981 80 c3 -7 60 -296 128 -643 94 -486 125 -630 137 -632 10
-2 190 232 495 642 l480 644 508 1 c304 0 507 -4 505 -9 -1 -5 -403 -494 -891
-1085 -489 -592 -892 -1089 -897 -1104 -5 -15 -75 -274 -154 -575 -79 -302
-146 -551 -149 -553 -2 -2 -202 -3 -444 -2 l-440 3 148 560 c81 308 148 571
149 585 0 14 -130 504 -290 1088 -159 584 -290 1069 -290 1077 0 13 65 15 500
15 391 0 502 -3 505 -12z m-16040 -3779 c67 -12 134 -44 184 -86 l34 -29 -53
-60 c-63 -69 -66 -71 -88 -51 -58 50 -162 63 -231 27 -154 -78 -191 -387 -63
-524 77 -82 201 -87 296 -13 l38 30 54 -59 c29 -33 53 -64 54 -71 0 -22 -108
-94 -171 -114 -103 -32 -239 -20 -337 30 -65 33 -127 97 -164 168 -45 87 -60
153 -60 263 0 110 15 176 60 263 73 142 188 214 378 236 6 0 37 -4 69 -10z
m4190 -14 c102 -28 192 -110 238 -216 34 -76 47 -146 47 -252 0 -297 -167
-488 -425 -487 -208 1 -354 120 -410 335 -19 75 -19 230 0 313 60 253 286 379
550 307z m3120 3 c48 -12 120 -49 158 -80 l29 -23 -52 -65 c-29 -36 -54 -67
-56 -69 -2 -2 -12 3 -22 12 -62 57 -213 77 -266 36 -20 -16 -26 -29 -26 -59 0
-51 19 -65 177 -130 189 -77 242 -123 264 -228 28 -137 -34 -251 -171 -316
-61 -29 -72 -31 -180 -31 -102 0 -122 3 -179 27 -66 28 -161 87 -161 101 0 4
26 38 57 76 l56 68 51 -34 c145 -96 316 -78 316 32 0 39 -44 75 -141 114 -240
98 -303 161 -303 306 0 52 6 81 21 111 72 138 244 199 428 152z m1233 -9 c61
-21 137 -73 168 -116 146 -198 137 -528 -21 -710 -23 -27 -64 -56 -113 -80
-74 -37 -79 -38 -186 -38 -136 0 -199 22 -279 95 -101 92 -147 215 -147 390 0
164 33 267 116 360 105 115 295 156 462 99z m5399 22 c91 -14 174 -55 232
-115 92 -98 125 -196 125 -366 1 -139 -23 -226 -84 -318 -46 -68 -86 -102
-168 -140 -51 -24 -68 -27 -167 -27 -139 0 -199 22 -285 102 -100 92 -145 213
-144 388 1 168 44 284 136 371 57 53 132 90 208 103 74 12 76 12 147 2z m2588
-18 c58 -18 125 -55 150 -83 20 -22 23 -15 -48 -102 l-38 -47 -51 32 c-44 27
-62 33 -129 36 -76 3 -79 2 -109 -27 -71 -72 -34 -107 225 -213 94 -39 167
-104 184 -165 48 -171 -43 -322 -221 -370 -139 -37 -333 5 -435 93 l-33 28 56
68 c31 37 60 67 64 67 4 0 34 -16 66 -35 68 -41 112 -55 174 -55 105 0 164 86
102 148 -10 10 -80 45 -155 77 -80 34 -155 73 -179 94 -87 75 -114 206 -62
309 71 142 254 203 439 145z m-23287 -17 c146 -13 452 -52 458 -59 1 -1 -185
-2 -414 -3 -433 -1 -656 -13 -1022 -55 -1237 -143 -2460 -543 -3600 -1179
-284 -158 -451 -263 -970 -605 -236 -156 -455 -331 -676 -540 l-131 -123 -94
52 c-310 171 -633 392 -858 587 l-83 72 23 19 c59 47 408 274 541 351 1061
619 2401 1078 3775 1291 223 35 917 121 1208 151 211 21 594 48 830 59 186 8
849 -4 1013 -18z m1552 -66 l0 -90 -190 0 -190 0 0 -110 0 -110 160 0 160 0 0
-90 0 -90 -160 0 -160 0 0 -180 0 -180 -105 0 -105 0 0 470 0 470 295 0 295 0
0 -90z m1000 -367 c78 -252 145 -464 148 -471 3 -10 -20 -12 -109 -10 l-113 3
-26 105 -26 105 -147 3 -146 3 -10 -38 c-5 -21 -18 -69 -28 -108 l-18 -70
-109 -3 c-85 -2 -107 0 -104 10 3 7 70 219 148 471 l143 457 127 0 127 0 143
-457z m1087 432 c64 -22 115 -63 137 -110 20 -41 23 -136 6 -180 -15 -41 -68
-94 -110 -113 l-35 -15 51 -16 c104 -35 154 -99 154 -202 0 -88 -16 -128 -74
-185 -83 -81 -109 -87 -393 -92 l-243 -4 0 472 0 472 228 -4 c183 -4 237 -8
279 -23z m1203 -1 c70 -23 150 -100 168 -160 16 -56 15 -173 -3 -223 -19 -55
-59 -106 -104 -133 -20 -12 -38 -23 -40 -24 -2 -2 42 -84 98 -182 55 -99 101
-182 101 -186 0 -4 -52 -5 -116 -4 l-115 3 -88 165 -88 165 -59 0 -59 0 -3
-167 -2 -168 -105 0 -105 0 0 471 0 471 233 -4 c192 -4 241 -8 287 -24z m900
-444 l0 -470 -105 0 -105 0 0 470 0 470 105 0 105 0 0 -470z m2286 5 c79 -253
144 -463 144 -467 0 -5 -49 -8 -109 -8 l-109 0 -21 78 c-11 42 -23 92 -27 110
l-6 32 -147 0 -147 0 -29 -110 -28 -110 -107 0 -107 0 142 454 c78 249 145
461 148 470 6 15 22 16 133 14 l126 -3 144 -460z m1174 375 l0 -90 -130 0
-130 0 0 -380 0 -380 -105 0 -105 0 0 380 0 380 -130 0 -130 0 0 90 0 90 365
0 365 0 0 -90z m680 -380 l0 -470 -105 0 -105 0 0 470 0 470 105 0 105 0 0
-470z m2133 348 c120 -227 213 -412 245 -487 18 -41 34 -72 36 -70 1 2 -3 60
-10 129 -7 69 -13 221 -13 338 l-1 212 100 0 100 0 0 -470 0 -470 -109 0 -109
0 -129 248 c-71 136 -147 287 -168 336 -22 48 -41 83 -43 77 -2 -6 1 -59 7
-118 6 -58 11 -205 11 -325 l0 -218 -100 0 -100 0 0 470 0 470 109 0 109 0 65
-122z m4267 -263 l0 -385 185 0 185 0 0 -85 0 -85 -290 0 -290 0 0 470 0 470
105 0 105 0 0 -385z m1012 62 c3 -322 3 -323 28 -371 33 -64 76 -89 148 -83
96 7 137 58 152 188 6 46 10 198 10 337 l0 252 100 0 100 0 0 -277 c0 -153 -5
-310 -10 -349 -19 -150 -80 -248 -187 -300 -43 -21 -73 -28 -147 -32 -206 -10
-329 71 -384 253 -12 39 -16 125 -19 378 l-5 327 105 0 106 0 3 -323z m1728
233 l0 -90 -130 0 -130 0 0 -380 0 -380 -105 0 -105 0 0 380 0 380 -130 0
-130 0 0 90 0 90 365 0 365 0 0 -90z m680 -380 l0 -470 -105 0 -105 0 0 470 0
470 105 0 105 0 0 -470z m2211 207 c75 -144 151 -297 169 -339 19 -43 35 -76
38 -74 2 2 -1 53 -7 112 -6 59 -11 210 -11 336 l0 228 100 0 100 0 0 -470 0
-470 -113 0 -112 0 -52 103 c-29 56 -85 165 -125 242 -40 77 -92 182 -116 234
-23 52 -44 92 -46 90 -2 -2 2 -62 10 -134 7 -71 13 -221 13 -332 l1 -203 -100
0 -100 0 0 470 0 470 108 0 107 0 136 -263z m-22301 -102 c0 -3 -22 -45 -49
-93 -566 -1019 -1532 -1729 -2656 -1951 -289 -57 -388 -66 -755 -66 -422 1
-611 23 -965 115 -201 52 -550 172 -578 199 -5 5 70 61 165 125 l173 117 60
-21 c114 -40 330 -98 460 -124 275 -54 348 -61 685 -61 344 0 439 9 717 66
913 188 1717 737 2235 1525 l93 141 175 12 c96 7 184 14 195 15 38 6 45 6 45
1z"/>
<path d="M3726 9147 c-438 -1189 -799 -2172 -802 -2183 -5 -20 4 -19 178 30
l183 52 622 2129 c342 1171 621 2131 619 2132 -1 1 -361 -970 -800 -2160z"/>
<path d="M4212 9223 c-204 -1120 -371 -2038 -369 -2039 1 -1 112 19 247 46
135 26 288 56 341 65 l95 17 269 741 c147 408 271 748 275 756 8 15 63 -148
62 -184 0 -11 -104 -305 -230 -652 -190 -526 -226 -633 -211 -633 57 0 305 43
314 55 6 7 55 169 110 359 95 329 101 345 113 316 11 -28 4 -57 -82 -352 -52
-178 -94 -324 -92 -325 2 -2 77 5 167 16 90 11 201 23 246 27 45 4 87 10 94
14 9 6 -92 411 -400 1606 -226 880 -446 1735 -488 1901 -43 167 -80 303 -83
303 -3 0 -173 -917 -378 -2037z"/>
<path d="M3913 9054 c-319 -1094 -580 -1990 -579 -1992 6 -6 466 112 466 120
0 5 158 872 350 1926 193 1054 349 1920 347 1925 -1 5 -264 -886 -584 -1979z"/>
<path d="M15278 9695 l-397 -720 411 -3 c226 -1 412 -1 414 1 3 2 -24 1317
-28 1397 -3 44 -15 23 -400 -675z"/>
<path d="M29118 9695 l-397 -720 411 -3 c226 -1 412 -1 414 1 3 3 -24 1332
-28 1402 -3 37 -32 -12 -400 -680z"/>
<path d="M20255 7091 c-82 -50 -119 -137 -118 -281 1 -153 44 -249 130 -291
93 -45 199 -5 248 94 83 170 39 418 -86 483 -41 20 -137 18 -174 -5z"/>
<path d="M24595 7091 c-44 -27 -71 -60 -97 -116 -19 -43 -22 -67 -22 -165 0
-97 3 -123 21 -163 34 -74 62 -108 107 -128 79 -36 157 -20 214 45 58 66 66
96 66 246 1 127 -1 138 -26 185 -46 87 -90 115 -181 115 -33 0 -63 -7 -82 -19z"/>
<path d="M30079 7091 c-72 -40 -119 -150 -119 -281 0 -193 92 -318 228 -307
68 5 117 43 157 122 29 57 30 66 30 185 0 117 -2 129 -28 183 -41 82 -82 111
-166 114 -50 3 -74 -1 -102 -16z"/>
<path d="M11767 6934 c-26 -105 -47 -196 -47 -202 0 -8 28 -12 93 -12 52 0 96
2 99 5 4 4 -76 331 -95 388 -2 6 -24 -75 -50 -179z"/>
<path d="M12880 7010 l0 -110 80 0 c93 0 132 15 155 60 38 73 4 134 -84 150
-29 6 -76 10 -102 10 l-49 0 0 -110z"/>
<path d="M12880 6626 l0 -126 90 0 c99 0 160 18 183 53 24 38 29 82 13 120
-22 54 -63 70 -183 75 l-103 4 0 -126z"/>
<path d="M14072 6978 l3 -133 91 1 c71 0 98 5 125 20 46 27 71 77 66 132 -9
82 -61 112 -197 112 l-91 0 3 -132z"/>
<path d="M17242 6942 c-23 -97 -45 -187 -48 -199 -6 -23 -5 -23 95 -23 55 0
101 2 101 5 0 15 -94 381 -99 387 -3 4 -25 -73 -49 -170z"/>
</g>
</svg>
